# xmcd
#
# Track frame offsets: 
#        150
#        44713
#        76389
#        107877
#        148853
#        197718
#        227803
#        263220
#
# Disc length: 3809 seconds
#
# Revision: 0
# Processed by: cddbd v1.5.2PL0 Copyright (c) Steve Scherf et al.
# Submitted via: ExactAudioCopyFreeDBPlugin 1.0
#
DISCID=750edf08
DTITLE=Emma Johnson - The Art of Emma Johnson CD3
DYEAR=1900
DGENRE=Classical
TTITLE0=Mozart-Emma Johnson-Gabor Takacs-Nagy-Rebecca Hirsch-Tim Boult
TTITLE0=on-Andrew Shulman - Clarinet Quintet in A, K581 -I-Allegro
TTITLE1=Mozart-Emma Johnson-Gabor Takacs-Nagy-Rebecca Hirsch-Tim Boult
TTITLE1=on-Andrew Shulman - Clarinet Quintet in A, K581 -II- Larghetto
TTITLE2=Mozart-Emma Johnson-Gabor Takacs-Nagy-Rebecca Hirsch-Tim Boult
TTITLE2=on-Andrew Shulman - Clarinet Quintet in A, K581 -III- Menuetto
TTITLE2=and trio
TTITLE3=Mozart-Emma Johnson-Gabor Takacs-Nagy-Rebecca Hirsch-Tim Boult
TTITLE3=on-Andrew Shulman - Clarinet Quintet in A, K581 -IV- Allegrett
TTITLE3=o con variazioni
TTITLE4=Crussell-Emma Johnson-ECO-Gerard Schwarz - Clarinet Concerto N
TTITLE4=o3 in B flat, Op.11 -I- Allegro Risoluto
TTITLE5=Crussell-Emma Johnson-ECO-Gerard Schwarz - Clarinet Concerto N
TTITLE5=o3 in B flat, Op.11 -II- Andante Moderato
TTITLE6=Crussell-Emma Johnson-ECO-Gerard Schwarz - Clarinet Concerto N
TTITLE6=o3 in B flat, Op.11 -III- Alla Polacca
TTITLE7=Baermann-Emma Johnson-ECO-Sir Charles Groves - Concertino for 
TTITLE7=Clarinet and Strings in E flat, J109, Op.26
EXTD=
EXTT0=
EXTT1=
EXTT2=
EXTT3=
EXTT4=
EXTT5=
EXTT6=
EXTT7=
PLAYORDER=
